<svg width="1494" height="647" viewBox="0 0 1494 647" fill="none" xmlns="http://www.w3.org/2000/svg">
<path d="M296.018 576.933C300.401 576.933 303.932 576.325 306.611 575.107C310.855 573.194 313.498 569.75 314.542 564.776C315.62 559.767 314.316 556.393 310.628 554.653C308.507 553.679 305.184 553.192 300.662 553.192H282.139L277.13 576.933H296.018ZM292.001 612.31C298.367 612.31 303.289 610.467 306.767 606.779C308.959 604.449 310.42 601.631 311.15 598.327C312.333 592.761 310.646 588.969 306.089 586.952C303.689 585.873 300.315 585.334 295.966 585.334H275.356L269.616 612.31H292.001ZM273.843 544.531H306.767C315.742 544.531 321.551 547.209 324.195 552.566C325.76 555.732 326.091 559.384 325.186 563.524C324.177 568.359 321.969 572.324 318.56 575.42C316.785 577.055 314.42 578.551 311.463 579.908C315.046 581.403 317.62 583.091 319.186 584.969C321.934 588.308 322.682 592.917 321.429 598.796C320.386 603.736 317.881 608.206 313.916 612.206C308.037 618.189 300.054 621.181 289.966 621.181H257.563L273.843 544.531ZM344.179 544.27H353.571L347.466 572.864C350.319 570.046 352.754 568.063 354.771 566.915C358.215 564.932 362.198 563.941 366.72 563.941C374.825 563.941 379.713 566.776 381.382 572.446C382.287 575.542 382.165 579.838 381.017 585.334L373.399 621.181H363.746L371.208 585.96C372.077 581.856 372.199 578.847 371.573 576.933C370.494 573.872 367.607 572.342 362.911 572.342C359.015 572.342 355.206 573.681 351.484 576.359C347.762 579.038 345.101 584.099 343.501 591.543L337.239 621.181H327.847L344.179 544.27ZM405.802 615.076C409.106 615.076 412.481 614.311 415.924 612.78C421.664 610.241 425.16 606.084 426.412 600.309L427.978 592.744C426.691 593.474 425.09 594.083 423.177 594.57C421.264 595.057 419.42 595.405 417.646 595.613L411.802 596.344C408.289 596.796 405.576 597.509 403.662 598.483C400.427 600.118 398.427 602.727 397.662 606.31C397.071 609.023 397.592 611.162 399.227 612.728C400.897 614.293 403.089 615.076 405.802 615.076ZM424.429 587.317C426.656 587.039 428.308 586.134 429.386 584.604C429.978 583.769 430.43 582.569 430.743 581.003C431.439 577.803 430.795 575.49 428.812 574.064C426.83 572.603 423.716 571.872 419.473 571.872C414.568 571.872 410.811 573.194 408.202 575.838C406.741 577.299 405.541 579.473 404.602 582.36H395.836C397.471 575.472 400.723 570.689 405.593 568.011C410.463 565.298 415.733 563.941 421.403 563.941C427.978 563.941 433.039 565.193 436.587 567.698C440.135 570.202 441.353 574.098 440.24 579.386L433.404 611.58C433.195 612.554 433.213 613.337 433.456 613.928C433.735 614.519 434.517 614.815 435.804 614.815C436.222 614.815 436.691 614.798 437.213 614.763C437.77 614.693 438.361 614.606 438.987 614.502L437.474 621.442C435.944 621.859 434.778 622.12 433.978 622.224C433.213 622.329 432.169 622.381 430.847 622.381C427.612 622.381 425.508 621.233 424.534 618.937C424.012 617.72 423.838 615.998 424.012 613.771C421.542 616.276 418.325 618.45 414.359 620.294C410.394 622.137 406.254 623.059 401.941 623.059C396.758 623.059 392.844 621.494 390.2 618.363C387.592 615.198 386.791 611.249 387.8 606.519C388.913 601.336 391.383 597.318 395.21 594.465C399.071 591.613 403.697 589.856 409.089 589.195L424.429 587.317ZM458.919 565.298H467.842L465.807 574.951C466.92 573.072 469.181 570.794 472.59 568.115C476.034 565.402 479.617 564.045 483.339 564.045C483.513 564.045 483.809 564.063 484.226 564.098C484.643 564.132 485.339 564.202 486.313 564.306L484.226 574.22C483.669 574.116 483.165 574.046 482.713 574.011C482.261 573.977 481.756 573.959 481.2 573.959C476.469 573.959 472.503 575.49 469.303 578.551C466.137 581.577 464.12 585.073 463.25 589.039L456.467 621.181H447.075L458.919 565.298ZM500.871 615.076C504.175 615.076 507.55 614.311 510.993 612.78C516.733 610.241 520.229 606.084 521.481 600.309L523.047 592.744C521.76 593.474 520.159 594.083 518.246 594.57C516.333 595.057 514.489 595.405 512.715 595.613L506.871 596.344C503.358 596.796 500.645 597.509 498.732 598.483C495.496 600.118 493.496 602.727 492.731 606.31C492.14 609.023 492.661 611.162 494.296 612.728C495.966 614.293 498.158 615.076 500.871 615.076ZM519.499 587.317C521.725 587.039 523.377 586.134 524.455 584.604C525.047 583.769 525.499 582.569 525.812 581.003C526.508 577.803 525.864 575.49 523.881 574.064C521.899 572.603 518.785 571.872 514.542 571.872C509.637 571.872 505.88 573.194 503.271 575.838C501.81 577.299 500.61 579.473 499.671 582.36H490.905C492.54 575.472 495.792 570.689 500.662 568.011C505.532 565.298 510.802 563.941 516.472 563.941C523.047 563.941 528.108 565.193 531.656 567.698C535.204 570.202 536.422 574.098 535.309 579.386L528.473 611.58C528.264 612.554 528.282 613.337 528.525 613.928C528.804 614.519 529.586 614.815 530.873 614.815C531.291 614.815 531.76 614.798 532.282 614.763C532.839 614.693 533.43 614.606 534.056 614.502L532.543 621.442C531.013 621.859 529.847 622.12 529.047 622.224C528.282 622.329 527.238 622.381 525.916 622.381C522.681 622.381 520.577 621.233 519.603 618.937C519.081 617.72 518.907 615.998 519.081 613.771C516.611 616.276 513.394 618.45 509.428 620.294C505.463 622.137 501.323 623.059 497.01 623.059C491.827 623.059 487.913 621.494 485.269 618.363C482.661 615.198 481.861 611.249 482.869 606.519C483.982 601.336 486.452 597.318 490.279 594.465C494.14 591.613 498.766 589.856 504.158 589.195L519.499 587.317ZM558.945 549.696H568.442L565.102 565.298H574.025L572.407 572.968H563.485L555.71 609.441C555.293 611.389 555.676 612.693 556.858 613.354C557.519 613.737 558.702 613.928 560.406 613.928C560.859 613.928 561.346 613.928 561.867 613.928C562.389 613.893 563.015 613.841 563.746 613.771L562.18 621.181C561.032 621.494 559.85 621.72 558.632 621.859C557.45 621.998 556.18 622.068 554.823 622.068C550.44 622.068 547.692 620.955 546.579 618.728C545.501 616.467 545.344 613.545 546.109 609.962L553.988 572.968H546.423L548.04 565.298H555.606L558.945 549.696ZM617.437 544.531H626.464L616.968 589.039L646.135 565.298H658.136L632.308 586.221L647.492 621.181H635.491L624.012 593.004L614.62 600.205L610.185 621.181H601.158L617.437 544.531ZM673.268 615.076C676.573 615.076 679.947 614.311 683.391 612.78C689.13 610.241 692.626 606.084 693.879 600.309L695.444 592.744C694.157 593.474 692.557 594.083 690.644 594.57C688.73 595.057 686.887 595.405 685.113 595.613L679.269 596.344C675.755 596.796 673.042 597.509 671.129 598.483C667.894 600.118 665.894 602.727 665.128 606.31C664.537 609.023 665.059 611.162 666.694 612.728C668.363 614.293 670.555 615.076 673.268 615.076ZM691.896 587.317C694.122 587.039 695.774 586.134 696.853 584.604C697.444 583.769 697.896 582.569 698.209 581.003C698.905 577.803 698.262 575.49 696.279 574.064C694.296 572.603 691.183 571.872 686.939 571.872C682.034 571.872 678.277 573.194 675.668 575.838C674.207 577.299 673.007 579.473 672.068 582.36H663.302C664.937 575.472 668.19 570.689 673.059 568.011C677.929 565.298 683.199 563.941 688.87 563.941C695.444 563.941 700.505 565.193 704.053 567.698C707.602 570.202 708.819 574.098 707.706 579.386L700.871 611.58C700.662 612.554 700.679 613.337 700.923 613.928C701.201 614.519 701.984 614.815 703.271 614.815C703.688 614.815 704.158 614.798 704.68 614.763C705.236 614.693 705.828 614.606 706.454 614.502L704.94 621.442C703.41 621.859 702.245 622.12 701.445 622.224C700.679 622.329 699.636 622.381 698.314 622.381C695.079 622.381 692.974 621.233 692 618.937C691.478 617.72 691.305 615.998 691.478 613.771C689.009 616.276 685.791 618.45 681.825 620.294C677.86 622.137 673.72 623.059 669.407 623.059C664.224 623.059 660.311 621.494 657.667 618.363C655.058 615.198 654.258 611.249 655.267 606.519C656.38 601.336 658.85 597.318 662.676 594.465C666.537 591.613 671.164 589.856 676.555 589.195L691.896 587.317ZM815.454 544.531L813.524 553.662H787.695L773.346 621.181H762.806L777.155 553.662H751.327L753.258 544.531H815.454ZM815.611 565.298H824.533L822.498 574.951C823.612 573.072 825.873 570.794 829.282 568.115C832.725 565.402 836.308 564.045 840.03 564.045C840.204 564.045 840.5 564.063 840.917 564.098C841.335 564.132 842.031 564.202 843.005 564.306L840.917 574.22C840.361 574.116 839.856 574.046 839.404 574.011C838.952 573.977 838.448 573.959 837.891 573.959C833.16 573.959 829.195 575.49 825.994 578.551C822.829 581.577 820.811 585.073 819.942 589.039L813.158 621.181H803.766L815.611 565.298ZM857.562 615.076C860.867 615.076 864.241 614.311 867.685 612.78C873.425 610.241 876.92 606.084 878.173 600.309L879.738 592.744C878.451 593.474 876.851 594.083 874.938 594.57C873.025 595.057 871.181 595.405 869.407 595.613L863.563 596.344C860.049 596.796 857.336 597.509 855.423 598.483C852.188 600.118 850.188 602.727 849.422 606.31C848.831 609.023 849.353 611.162 850.988 612.728C852.658 614.293 854.849 615.076 857.562 615.076ZM876.19 587.317C878.416 587.039 880.069 586.134 881.147 584.604C881.738 583.769 882.191 582.569 882.504 581.003C883.199 577.803 882.556 575.49 880.573 574.064C878.59 572.603 875.477 571.872 871.233 571.872C866.328 571.872 862.571 573.194 859.963 575.838C858.502 577.299 857.301 579.473 856.362 582.36H847.596C849.231 575.472 852.484 570.689 857.354 568.011C862.224 565.298 867.494 563.941 873.164 563.941C879.738 563.941 884.799 565.193 888.348 567.698C891.896 570.202 893.113 574.098 892 579.386L885.165 611.58C884.956 612.554 884.973 613.337 885.217 613.928C885.495 614.519 886.278 614.815 887.565 614.815C887.982 614.815 888.452 614.798 888.974 614.763C889.53 614.693 890.122 614.606 890.748 614.502L889.235 621.442C887.704 621.859 886.539 622.12 885.739 622.224C884.973 622.329 883.93 622.381 882.608 622.381C879.373 622.381 877.268 621.233 876.294 618.937C875.773 617.72 875.599 615.998 875.773 613.771C873.303 616.276 870.085 618.45 866.12 620.294C862.154 622.137 858.015 623.059 853.701 623.059C848.518 623.059 844.605 621.494 841.961 618.363C839.352 615.198 838.552 611.249 839.561 606.519C840.674 601.336 843.144 597.318 846.97 594.465C850.831 591.613 855.458 589.856 860.85 589.195L876.19 587.317ZM915.011 565.298L920.281 610.797L945.535 565.298H955.814L922.89 621.181H912.871L904.105 565.298H915.011ZM1005.28 574.064C1006.57 576.881 1007.12 580.169 1006.95 583.925C1006.98 586.499 1006.39 590.604 1005.17 596.239H964.215C963.171 601.91 963.537 606.466 965.311 609.91C967.12 613.319 970.65 615.024 975.903 615.024C980.808 615.024 985.051 613.406 988.634 610.171C990.722 608.293 992.374 606.119 993.591 603.649H1002.83C1002.13 605.701 1000.83 607.997 998.914 610.536C997.035 613.041 995.07 615.093 993.017 616.693C989.574 619.476 985.643 621.355 981.225 622.329C978.825 622.885 976.199 623.164 973.346 623.164C966.389 623.164 961.032 620.642 957.275 615.598C953.518 610.519 952.614 603.423 954.562 594.309C956.475 585.334 960.458 578.047 966.511 572.446C972.563 566.846 979.521 564.045 987.382 564.045C991.348 564.045 995 564.985 998.34 566.863C1001.68 568.707 1003.99 571.107 1005.28 574.064ZM997.087 588.778C997.574 584.708 997.383 581.456 996.513 579.021C994.913 574.498 991.104 572.237 985.086 572.237C980.773 572.237 976.825 573.803 973.242 576.933C969.659 580.029 967.259 583.978 966.041 588.778H997.087ZM1028.03 544.531H1037.42L1021.14 621.181H1011.75L1028.03 544.531ZM1106.4 589.769L1101.97 555.906L1082.4 589.769H1106.4ZM1098.99 544.531H1110.73L1122.26 621.181H1110.89L1107.97 598.222H1077.65L1064.5 621.181H1053.86L1098.99 544.531ZM1175.33 592.9C1176.27 588.447 1176.42 584.621 1175.8 581.421C1174.69 575.264 1170.89 572.185 1164.42 572.185C1157.92 572.185 1152.77 575.438 1148.98 581.943C1146.96 585.421 1145.38 589.839 1144.23 595.196C1143.33 599.509 1143.2 603.179 1143.87 606.206C1145.05 611.98 1148.87 614.867 1155.34 614.867C1159.73 614.867 1163.76 613.041 1167.45 609.388C1171.14 605.701 1173.76 600.205 1175.33 592.9ZM1141.52 565.559H1150.65L1149.08 572.968C1151.48 570.429 1153.95 568.463 1156.49 567.072C1160.11 564.985 1164.06 563.941 1168.34 563.941C1174.67 563.941 1179.52 566.376 1182.89 571.246C1186.27 576.081 1187 583.004 1185.09 592.013C1182.51 604.188 1177.49 612.884 1170.01 618.102C1165.28 621.407 1160.23 623.059 1154.87 623.059C1150.67 623.059 1147.33 622.137 1144.86 620.294C1143.4 619.25 1141.92 617.459 1140.42 614.919L1134.37 643.461H1124.98L1141.52 565.559ZM1234.81 592.9C1235.75 588.447 1235.91 584.621 1235.28 581.421C1234.17 575.264 1230.38 572.185 1223.91 572.185C1217.4 572.185 1212.25 575.438 1208.46 581.943C1206.44 585.421 1204.86 589.839 1203.71 595.196C1202.81 599.509 1202.69 603.179 1203.35 606.206C1204.53 611.98 1208.36 614.867 1214.83 614.867C1219.21 614.867 1223.25 613.041 1226.93 609.388C1230.62 605.701 1233.25 600.205 1234.81 592.9ZM1201 565.559H1210.13L1208.57 572.968C1210.97 570.429 1213.44 568.463 1215.98 567.072C1219.59 564.985 1223.54 563.941 1227.82 563.941C1234.15 563.941 1239 566.376 1242.38 571.246C1245.75 576.081 1246.48 583.004 1244.57 592.013C1242 604.188 1236.97 612.884 1229.49 618.102C1224.76 621.407 1219.72 623.059 1214.36 623.059C1210.15 623.059 1206.81 622.137 1204.34 620.294C1202.88 619.25 1201.4 617.459 1199.9 614.919L1193.85 643.461H1184.46L1201 565.559Z" fill="white"/>
<path d="M36.0126 389.75V337.814H97.2585V308.416H36.0126V263.094H100.933V232.961H0V420.128H104.853V389.995L36.0126 389.75ZM138.171 316.5C146.99 311.11 159.239 307.191 171.489 307.191C191.332 307.191 195.987 317.235 195.987 330.954C152.625 330.954 121.757 347.123 121.757 381.911C121.757 403.959 137.436 422.578 162.424 422.578C177.613 422.578 190.842 416.453 198.437 405.919H199.172L201.377 419.883H233.714C232.245 411.554 231.755 399.55 231.755 387.79V338.304C231.755 308.661 220.485 281.712 178.103 281.712C156.79 281.712 140.131 287.837 130.821 292.982L138.171 316.5ZM196.967 373.581C196.967 390.73 183.003 397.1 174.183 397.1C165.119 397.1 157.035 391.465 157.035 378.481C157.035 358.637 177.368 353.983 196.722 353.983V373.581H196.967ZM256.008 413.514C265.072 418.903 279.526 422.578 294.225 422.578C328.033 422.578 347.632 405.674 347.632 379.706C347.632 360.842 337.098 347.858 314.069 338.304C298.39 331.689 293.246 328.014 293.246 320.175C293.246 312.825 299.125 307.436 310.149 307.436C320.194 307.436 329.993 311.355 335.873 314.54L342.732 289.062C334.893 284.897 322.889 281.467 309.169 281.467C279.036 281.467 259.438 300.086 259.438 324.34C259.438 339.039 268.747 353.493 293.98 363.782C308.925 370.152 313.579 374.316 313.579 382.646C313.579 390.975 307.455 396.12 294.715 396.12C283.691 396.12 269.972 391.22 263.113 387.055L256.008 413.514ZM480.658 362.802C481.393 358.882 481.638 353.738 481.638 348.593C481.638 304.741 460.079 281.467 427.252 281.467C387.564 281.467 365.026 315.03 365.026 353.983C365.026 396.12 389.034 422.578 430.926 422.578C447.83 422.578 463.509 419.638 475.023 414.739L469.879 389.75C460.569 392.935 450.035 395.385 436.806 395.385C417.207 395.385 400.793 386.075 399.813 363.047H480.903V362.802H480.658ZM399.569 338.059C400.548 324.83 407.898 306.701 425.292 306.701C443.176 306.701 448.81 323.85 448.565 338.059H399.569ZM634.998 232.716L613.684 303.026C607.315 325.565 601.925 348.103 597.27 369.172H596.535C592.371 347.613 586.981 325.809 580.856 303.026L560.523 232.716H515.691L503.197 419.883H536.514L540.189 347.858C541.414 324.585 542.639 297.146 543.129 273.383H543.864C548.274 296.411 554.153 321.645 560.278 342.713L581.101 417.188H608.54L631.568 341.488C637.938 320.42 644.552 295.676 650.187 273.383H650.922C650.677 292.247 651.902 322.38 652.882 347.123L656.311 419.883H690.609L680.075 232.716H634.998ZM777.823 355.208C775.864 363.537 773.659 373.336 772.189 380.686H771.454C769.739 373.091 767.289 363.782 765.084 355.208L744.996 284.407H705.553L751.365 408.859C752.345 411.554 752.835 413.514 752.835 414.984C752.835 417.678 746.71 431.397 734.706 440.217C728.337 444.627 721.722 448.546 715.598 450.016L724.662 480.394C732.746 478.924 746.71 474.025 759.695 461.53C774.884 446.341 786.643 422.333 801.587 378.481L832.21 284.162H794.727L777.823 355.208ZM836.619 232.716V263.829H882.921V419.883H918.934V263.829H965.481V232.716H836.619ZM1015.7 307.926L1014.23 284.162H983.365C983.855 296.166 984.345 309.886 984.345 326.544V419.883H1020.36V349.818C1020.36 326.544 1032.61 315.765 1049.02 315.765C1052.7 315.765 1055.63 316.01 1058.33 316.5V282.202C1055.88 281.712 1053.68 281.467 1050.25 281.467C1037.75 281.467 1022.81 290.532 1016.68 308.171H1015.7V307.926ZM1115.66 247.17C1115.66 236.145 1107.82 227.816 1096.06 227.816C1085.03 227.816 1076.7 235.9 1076.7 247.17C1076.7 257.949 1084.54 266.523 1096.06 266.523C1107.57 266.768 1115.66 258.929 1115.66 247.17ZM1078.42 419.883H1114.43V284.162H1078.42V419.883ZM1177.39 284.407H1146.03C1146.52 296.656 1147.01 311.355 1147.01 328.749V474.27H1183.27V406.654H1183.76C1189.64 415.719 1201.16 422.333 1215.85 422.333C1243.54 422.333 1271.71 400.285 1271.71 350.553C1271.71 308.906 1249.66 281.222 1220.02 281.222C1202.38 281.222 1188.66 288.817 1179.84 302.781H1179.35L1177.39 284.407ZM1183.27 340.019C1183.27 323.85 1194.05 310.62 1208.26 310.62C1226.14 310.62 1235.45 328.014 1235.45 352.268C1235.45 376.766 1225.9 394.65 1207.52 394.65C1195.52 394.65 1183.27 385.096 1183.27 365.497V340.019Z" fill="white"/>
<path fill-rule="evenodd" clip-rule="evenodd" d="M233.212 302.045C332.431 101.648 603.873 255.008 754.293 121.247C604.363 277.547 307.687 145.5 233.212 302.045Z" fill="white"/>
<path fill-rule="evenodd" clip-rule="evenodd" d="M684.495 124.683L702.379 143.792C711.199 153.346 708.749 153.591 698.705 159.471L641.623 186.174C634.764 190.339 630.354 186.909 635.254 179.069L671.511 121.253C674.941 114.149 678.861 118.068 684.495 124.683Z" fill="white"/>
<path d="M1248.28 476.356C1250.58 476.356 1251.97 475.433 1252.43 474.048C1253.35 472.663 1253.35 470.816 1253.35 468.97C1253.35 467.123 1252.43 466.2 1251.51 465.277C1250.12 464.354 1248.74 463.43 1247.35 463.43C1245.51 463.43 1244.12 464.353 1243.66 465.738C1242.74 467.585 1242.74 468.97 1242.74 470.355C1242.74 472.201 1243.2 473.125 1244.58 474.509C1245.04 475.894 1246.43 476.356 1248.28 476.356ZM1297.2 476.818C1301.35 476.818 1305.05 475.894 1308.74 474.509C1312.43 473.125 1316.12 471.278 1319.36 468.97C1322.59 466.662 1325.36 463.892 1328.13 461.122C1330.9 457.891 1333.2 455.121 1334.59 451.428C1335.05 450.966 1335.05 450.505 1335.51 449.581C1335.97 448.658 1335.97 448.196 1335.97 447.735C1335.97 446.35 1335.05 445.427 1333.67 445.427C1332.74 445.427 1331.82 445.888 1331.36 446.812C1330.44 447.735 1329.97 448.658 1329.51 449.12C1328.13 451.428 1326.28 453.736 1324.43 456.044C1322.59 458.352 1320.28 460.199 1317.97 462.045C1315.66 463.892 1312.89 465.277 1310.58 466.662C1307.82 468.047 1305.05 468.508 1301.81 468.508C1299.04 468.508 1296.74 467.585 1294.89 465.738C1293.5 464.353 1292.58 462.507 1292.12 460.66C1291.2 458.814 1291.2 456.506 1291.2 454.198C1291.2 451.889 1291.66 449.12 1292.12 446.812C1292.58 444.042 1293.5 441.734 1294.43 439.425C1295.35 437.117 1296.27 434.809 1297.66 432.963C1299.04 431.116 1299.97 429.269 1300.89 428.346C1301.81 427.423 1303.2 426.5 1304.12 426.038C1305.51 425.115 1306.43 425.115 1307.82 425.115C1309.66 425.115 1310.58 425.576 1310.58 426.961C1311.05 428.346 1311.05 429.269 1311.05 430.654C1311.05 432.963 1310.58 434.809 1309.66 436.194C1308.74 437.579 1308.28 438.964 1308.28 439.887C1308.28 440.81 1308.74 441.272 1309.66 441.272C1311.05 441.272 1311.97 440.81 1313.35 439.887C1314.74 438.502 1315.66 437.117 1316.12 434.809C1316.59 432.501 1317.05 431.116 1317.05 429.269C1317.05 425.576 1316.12 422.807 1313.82 421.422C1311.97 419.575 1309.2 419.114 1305.97 419.114C1303.2 419.114 1300.43 420.037 1297.66 420.96C1295.35 422.345 1293.04 423.73 1291.2 425.576C1289.35 427.423 1287.96 428.808 1287.04 431.116C1285.66 433.424 1284.73 435.732 1283.81 438.04C1282.89 440.349 1281.96 443.118 1281.5 445.427C1281.04 448.196 1280.58 450.505 1280.58 453.274C1280.58 456.967 1281.04 460.199 1282.43 463.892C1283.35 467.123 1285.2 469.893 1287.5 472.663C1288.89 474.048 1290.27 474.971 1292.12 475.894C1293.04 476.356 1294.89 476.818 1297.2 476.818ZM1330.9 458.352C1330.9 464.354 1332.28 469.431 1334.59 472.201C1337.36 474.971 1340.13 476.818 1343.82 476.818C1346.59 476.818 1349.36 475.894 1352.59 474.509C1355.82 472.663 1358.13 470.355 1360.9 467.585C1363.21 464.354 1365.52 460.66 1366.9 456.044C1368.75 451.428 1369.21 446.35 1369.21 440.349C1369.21 438.04 1368.75 435.732 1368.29 433.424C1367.83 431.116 1366.9 429.269 1365.98 427.885C1365.06 426.038 1363.67 425.115 1361.83 424.191C1359.98 423.268 1358.13 422.807 1356.29 422.807C1352.59 422.807 1349.36 424.192 1345.67 426.038C1342.44 428.346 1339.67 431.116 1337.82 434.809C1335.51 438.502 1333.67 442.195 1332.74 446.35C1331.82 450.043 1330.9 454.198 1330.9 458.352ZM1356.75 430.654C1359.06 430.654 1360.9 432.039 1361.83 433.886C1363.21 436.194 1363.67 438.964 1363.67 442.195C1363.67 446.35 1363.21 450.043 1362.29 453.736C1361.36 456.967 1359.98 459.737 1358.59 462.507C1356.75 464.815 1355.36 466.662 1353.52 468.047C1351.67 469.431 1349.82 469.893 1347.98 469.893C1346.13 469.893 1344.28 468.97 1342.9 467.123C1341.51 465.277 1341.05 462.507 1341.05 458.352C1341.05 455.583 1341.51 452.351 1342.44 449.12C1343.36 445.888 1344.75 443.118 1345.67 440.349C1347.05 437.579 1348.9 435.271 1350.75 433.886C1352.59 432.039 1354.44 430.654 1356.75 430.654ZM1419.99 473.125C1420.92 473.125 1421.38 472.663 1422.3 472.201C1423.22 471.74 1423.68 471.278 1424.15 470.355C1425.07 468.97 1425.99 467.585 1426.92 464.815C1428.3 462.507 1429.69 459.737 1431.53 456.506C1433.38 453.274 1435.23 450.505 1437.07 447.273C1438.92 444.042 1441.23 441.272 1443.07 438.502C1444.92 435.732 1446.77 433.886 1448.15 432.039C1450 430.193 1450.92 429.269 1452.31 429.269C1453.23 429.269 1453.69 429.731 1453.69 430.193C1454.15 430.654 1454.15 431.578 1454.61 432.039C1455.08 432.963 1455.08 433.424 1455.08 434.347V436.194C1455.08 440.349 1454.61 444.042 1454.15 448.196C1453.69 452.351 1453.23 456.044 1453.23 460.199C1453.23 462.045 1453.23 463.892 1453.69 465.738C1454.15 468.047 1454.15 469.893 1455.08 471.74C1456 473.586 1456.92 475.433 1457.85 476.356C1459.23 477.741 1461.08 478.203 1462.92 478.203C1465.23 478.203 1468 477.279 1470.77 475.894C1473.54 474.509 1476.31 472.201 1479.08 470.355C1481.85 468.047 1484.16 465.738 1486.47 463.43C1488.77 461.122 1490.62 458.814 1492.01 456.967C1492.47 456.506 1492.47 456.044 1492.93 455.582C1493.39 455.121 1493.39 454.659 1493.39 454.198C1493.39 453.274 1492.93 452.813 1492.93 452.351C1492.47 451.428 1492.01 451.428 1491.08 451.428C1490.16 451.428 1489.24 451.889 1488.77 452.813C1487.85 453.736 1487.39 454.659 1486.93 455.121C1486.01 456.506 1484.62 457.891 1483.24 459.737C1481.39 461.584 1479.54 463.43 1477.7 465.277C1475.85 467.123 1473.54 468.508 1471.69 469.893C1469.85 471.278 1468 471.74 1466.62 471.74C1465.69 471.74 1464.77 471.278 1464.31 470.816C1463.85 469.893 1463.39 469.431 1462.92 468.508C1462.46 467.585 1462.46 466.662 1462.46 465.738V463.43C1462.46 458.352 1462.92 452.813 1463.39 448.196C1464.31 443.118 1464.31 438.04 1464.31 432.963C1464.31 431.578 1463.85 430.193 1463.85 429.269C1463.39 427.885 1462.92 426.5 1462.46 425.576C1461.54 424.191 1460.62 423.268 1459.69 422.807C1458.31 421.883 1457.38 421.422 1456 421.422C1453.69 421.422 1451.84 422.345 1450 423.73C1447.69 425.115 1446.3 426.5 1444.92 427.885C1443.07 429.731 1441.69 431.578 1440.3 433.886C1438.92 436.194 1437.53 438.04 1436.15 439.887C1434.3 442.657 1432.46 444.965 1430.61 447.735C1428.76 450.505 1426.92 452.813 1425.53 455.582C1425.07 456.044 1425.07 456.506 1424.61 456.967C1424.15 457.891 1423.68 458.352 1423.68 458.352C1423.22 458.352 1423.22 457.891 1422.76 456.967C1422.3 456.044 1422.3 455.121 1422.3 454.198C1422.3 453.274 1421.84 451.889 1421.84 450.966V448.658C1421.84 445.888 1421.84 443.58 1422.3 440.81C1422.3 438.04 1422.76 435.732 1422.76 432.963C1422.76 432.039 1422.76 430.654 1422.3 429.731C1421.84 428.346 1421.84 426.961 1421.38 426.038C1420.91 424.653 1420.45 423.73 1419.53 422.807C1418.61 421.883 1417.68 421.422 1416.3 421.422C1414.45 421.422 1412.61 422.345 1410.3 424.191C1407.99 426.038 1406.14 428.346 1403.83 430.654C1401.53 433.424 1399.68 435.732 1398.29 438.502C1396.45 441.272 1395.06 443.118 1394.14 444.503C1394.6 441.734 1395.06 439.425 1395.99 436.656C1396.91 433.886 1397.37 431.578 1398.29 429.269C1398.76 428.346 1399.22 427.423 1399.68 426.038C1400.14 424.653 1401.06 423.268 1401.53 422.345C1401.99 420.96 1402.45 419.575 1402.91 418.652C1403.37 417.267 1403.37 416.344 1403.37 415.42C1403.37 414.497 1402.91 413.574 1402.45 413.112C1401.99 412.189 1401.06 412.189 1400.14 412.189C1398.29 412.189 1396.45 412.651 1394.14 413.574C1391.83 414.497 1390.45 415.882 1389.52 417.729C1389.06 419.114 1388.14 420.96 1387.68 423.268C1386.75 426.038 1385.83 429.269 1385.37 432.963C1384.45 436.656 1383.52 440.349 1383.06 444.503C1382.14 448.658 1381.21 452.351 1380.75 456.044C1379.83 459.737 1379.37 462.969 1378.91 466.2C1378.44 469.431 1377.98 471.278 1377.98 472.663C1377.98 473.586 1378.44 474.048 1378.91 474.971C1379.37 475.894 1380.29 475.894 1381.21 475.894C1382.6 475.894 1383.52 475.433 1384.45 474.509C1385.37 473.586 1385.83 472.663 1386.29 471.74C1386.75 470.355 1387.68 468.97 1389.06 466.662C1390.45 464.354 1391.83 461.584 1393.68 458.814C1395.53 455.582 1397.37 452.813 1399.22 449.581C1401.53 446.35 1403.37 443.58 1405.22 440.81C1407.07 438.04 1408.91 436.194 1410.3 434.347C1412.14 432.501 1413.07 431.578 1413.99 431.578C1414.91 431.578 1415.38 432.039 1415.38 432.963C1415.38 433.886 1415.84 434.347 1415.84 434.809V438.502V444.965C1415.84 447.273 1415.84 449.581 1416.3 452.351C1416.3 455.121 1416.76 457.429 1416.76 460.199C1417.22 462.969 1417.22 465.277 1417.68 467.123C1418.15 469.431 1418.61 471.278 1419.07 472.663C1418.15 472.201 1419.07 473.125 1419.99 473.125Z" fill="white"/>
<path fill-rule="evenodd" clip-rule="evenodd" d="M584.044 0.47657L936.085 29.6296C953.234 30.6096 950.539 34.0393 941.965 41.8788L770.231 209.938C760.677 220.472 758.472 217.532 746.958 205.038L679.832 129.093C671.013 119.784 669.543 117.824 684.732 112.434L851.811 58.7827L663.908 92.1005C649.944 95.0403 651.659 97.0002 641.615 83.0361L579.144 11.5008C571.305 2.68142 572.039 -1.4833 584.044 0.47657Z" fill="white"/>
<rect x="6.66602" y="582.053" width="205.807" height="12.9104" fill="#FF630B"/>
<rect x="1287.83" y="582.053" width="205.807" height="12.9104" fill="#139E3A"/>
</svg>
