<?xml version="1.0" encoding="UTF-8"?>
<svg id="Layer_1" xmlns="http://www.w3.org/2000/svg" version="1.1" viewBox="0 0 119 48">
  <!-- Generator: Adobe Illustrator 29.6.1, SVG Export Plug-In . SVG Version: 2.1.1 Build 9)  -->
  <defs>
    <style>
      .st0 {
        fill: #2193d2;
      }

      .st1 {
        fill: #58595b;
      }

      .st2 {
        fill: none;
        stroke: #58595b;
        stroke-width: .6px;
      }
    </style>
  </defs>
  <path class="st1" d="M7.63,35.9v-.23c.14-.05.25-.09.3-.18.05-.05.09-.14.09-.25v-.28l-2.41-6.74c-.09-.3-.23-.48-.3-.57-.07-.09-.25-.18-.44-.23v-.23h2.79v.23c-.14.05-.25.09-.3.18-.05.05-.09.14-.09.23v.14s.05.09.05.18l1.72,5.16,1.67-5.16s.05-.05.05-.14v-.14c0-.14-.05-.23-.09-.25-.05-.02-.14-.14-.3-.18v-.23h2.98v.23c-.14.05-.25.09-.3.18-.05.05-.09.14-.09.23v.14s.05.09.05.18l1.67,5.05,1.67-5.05v-.28c0-.14-.05-.23-.09-.25-.05-.05-.14-.14-.3-.18v-.23h2.68v.23c-.23.05-.34.14-.44.25-.09.09-.18.3-.3.57l-2.36,6.74s0,.09-.05.14v.14c0,.14.05.23.09.25.05.05.14.14.3.18v.23h-2.75v-.25c.18-.05.25-.09.3-.18.05-.05.09-.14.09-.25v-.09s0-.09-.05-.14l-1.88-5.69-1.88,5.69s-.05.09-.05.14v.14c0,.14.05.23.09.25.05.02.18.14.3.18v.23h-2.45v-.09Z"/>
  <path class="st1" d="M19.93,35.37l.71-1.74.23.09s0,.05-.05.05v.09c0,.18.25.39.78.57.53.23,1.1.3,1.63.3.57,0,1.01-.09,1.35-.25.34-.18.48-.39.48-.67,0-.39-.57-.62-1.72-.71-.44-.05-.78-.05-1.05-.09-.78-.09-1.35-.3-1.74-.62-.39-.34-.57-.78-.57-1.4,0-.73.3-1.31.87-1.74.57-.44,1.35-.67,2.27-.67.66,0,1.31.14,1.97.39.14.05.18.05.23.05s.18.05.39.18c.18.14.34.18.44.18,0,0,.05,0,.09-.05.05-.05.09-.05.14-.09l.18.09-.82,1.79-.23-.14v-.09c0-.23-.25-.44-.73-.67-.53-.23-1.05-.34-1.58-.34-.48,0-.87.09-1.19.23-.32.14-.44.34-.44.57,0,.34.44.57,1.31.62.66.05,1.19.09,1.63.18.71.14,1.26.39,1.63.73.34.34.53.83.53,1.35,0,.71-.3,1.26-.92,1.74-.62.44-1.44.71-2.45.71s-1.83-.23-2.7-.62c-.18-.09-.25-.14-.3-.14s-.09,0-.14.05c-.05,0-.05.05-.05.09l-.16-.05Z"/>
  <path class="st1" d="M36.24,32.92l.18-.14,1.15,1.88-.18.14s-.09-.09-.14-.14t-.09-.05s-.23.09-.48.25c-1.21.78-2.41,1.19-3.55,1.19-1.31,0-2.45-.44-3.32-1.26-.87-.87-1.31-1.93-1.31-3.19s.44-2.36,1.35-3.23c.87-.83,2.06-1.26,3.5-1.26.73,0,1.49.14,2.22.39.73.25,1.15.39,1.19.39s.14,0,.23-.05c.05,0,.14,0,.23-.05l.18.14-1.15,1.97-.18-.14v-.09c0-.25-.3-.48-.87-.73-.62-.25-1.21-.39-1.88-.39-.87,0-1.63.3-2.2.83-.57.53-.87,1.26-.87,2.11s.3,1.63.87,2.2c.57.53,1.31.83,2.27.83.71,0,1.35-.14,2.02-.48.66-.3,1.01-.57,1.01-.78v-.14c-.14-.11-.14-.16-.18-.21Z"/>
  <path class="st1" d="M44.92,29.5c0-.18-.05-.25-.09-.34-.05-.05-.14-.14-.3-.14v-.23h2.36v.23c-.14.05-.25.09-.3.14s-.09.18-.09.34v3.76c0,1.01-.25,1.74-.78,2.16-.53.44-1.4.67-2.63.67s-2.11-.23-2.59-.67c-.53-.44-.78-1.15-.78-2.16v-3.76c0-.18-.05-.25-.09-.34-.05-.05-.14-.14-.3-.14v-.23h2.31v.23c-.14.05-.23.09-.3.14-.05.05-.09.18-.09.34v3.46c0,.62.14,1.1.44,1.35.25.25.73.39,1.4.39.62,0,1.1-.14,1.4-.44.25-.25.44-.73.44-1.4v-3.37Z"/>
  <path class="st1" d="M53.92,28.81c.78,0,1.35.18,1.79.48.44.34.62.78.62,1.35,0,.3-.09.62-.23.83-.14.21-.39.44-.71.62.39.23.71.44.87.73.16.3.25.62.25,1.01,0,.67-.25,1.15-.73,1.54-.48.34-1.19.53-2.06.53h-4.47v-.23c.14-.05.25-.09.3-.14.05-.05.09-.18.09-.34v-5.73c0-.18-.05-.25-.09-.34-.05-.05-.14-.14-.3-.14v-.23h4.65l.02.07ZM53.44,30.03h-2.2v1.45h2.36c.39,0,.71-.05.87-.18.23-.14.3-.3.3-.57s-.09-.44-.3-.57c-.14-.02-.5-.11-1.03-.11ZM53.33,32.73h-2.06v1.93h2.02c.66,0,1.15-.09,1.35-.23.25-.14.39-.39.39-.73s-.14-.57-.39-.73c-.27-.14-.71-.23-1.31-.23Z"/>
  <path class="st1" d="M64.92,28.81c.18,0,.25-.05.3-.09.05-.05.09-.14.14-.3h.23v2.2h-.23c-.05-.18-.09-.25-.14-.3-.05-.05-.18-.09-.3-.09h-4.03v1.4h2.5c.18,0,.25-.05.3-.09.05-.05.09-.14.14-.3h.23v2.02h-.23c-.05-.14-.09-.25-.14-.3-.05-.05-.18-.09-.3-.09h-2.5v1.63h4.19c.18,0,.25-.05.3-.09.05-.05.09-.18.14-.3h.23v2.22h-.23c-.05-.18-.09-.25-.14-.3-.05-.05-.18-.09-.3-.09h-6.16v-.23c.14-.05.25-.09.3-.14.05-.09.09-.18.09-.34v-5.73c0-.18-.05-.25-.09-.34-.05-.05-.18-.14-.3-.14v-.23h6v.02Z"/>
  <path class="st0" d="M73.05,28.76c-.18,0-.25.05-.3.09-.05.05-.09.18-.14.3h-.23v-2.32h.18c.05.18.09.25.14.3.05.05.18.09.3.09h6.78c.18,0,.25-.05.3-.09.05-.05.09-.18.14-.3h.23v2.36h-.23c-.05-.18-.09-.25-.14-.3-.05-.05-.18-.09-.3-.09h-2.5v6.45c0,.18.05.25.09.34.05.05.14.09.3.14v.23h-2.5v-.25c.14-.05.25-.09.3-.14s.09-.18.09-.34v-6.45h-2.52v-.02Z"/>
  <path class="st0" d="M88.08,28.81c.18,0,.25-.05.3-.09.05-.05.09-.14.14-.3h.23v2.2h-.23c-.05-.18-.09-.25-.14-.3-.05-.05-.18-.09-.3-.09h-4.03v1.4h2.5c.18,0,.25-.05.3-.09.05-.05.09-.14.14-.3h.23v2.02h-.23c-.05-.14-.09-.25-.14-.3-.05-.05-.18-.09-.3-.09h-2.5v1.63h4.19c.18,0,.25-.05.3-.09.05-.05.09-.18.14-.3h.23v2.22h-.23c-.05-.18-.09-.25-.14-.3-.05-.05-.18-.09-.3-.09h-6.16v-.23c.14-.05.25-.09.3-.14.05-.09.09-.18.09-.34v-5.73c0-.18-.05-.25-.09-.34-.05-.05-.18-.14-.3-.14v-.23h6v.02Z"/>
  <path class="st0" d="M97.27,31.04l-.18-.09v-.09c0-.18-.23-.39-.71-.57-.48-.23-.96-.3-1.49-.3-.73,0-1.31.23-1.79.67-.44.44-.66,1.01-.66,1.72s.23,1.26.66,1.72c.44.44,1.05.62,1.79.62.57,0,1.15-.14,1.63-.39.53-.25.78-.44.78-.62v-.09s-.05-.09-.05-.14l.18-.09,1.01,1.58-.18.09s-.09-.09-.14-.09h-.09s-.23.09-.44.23c-1.01.62-2.02.96-2.98.96-1.15,0-2.06-.34-2.79-1.06-.73-.71-1.15-1.63-1.15-2.68s.39-1.97,1.15-2.68c.73-.71,1.74-1.06,2.93-1.06.62,0,1.21.09,1.88.3.62.23.96.3,1.05.3h.14s.14-.05.18-.05l.18.09-.92,1.72Z"/>
  <path class="st0" d="M102.03,35.19c0,.18.05.25.09.34.05.05.14.14.3.14v.23h-2.31v-.23c.14-.05.23-.09.3-.14.05-.05.09-.18.09-.34v-5.73c0-.18-.05-.25-.09-.34-.05-.05-.14-.14-.3-.14v-.23h2.31v.23c-.14.05-.25.09-.3.14-.05.09-.09.18-.09.34v1.93h3.67v-1.93c0-.18-.04-.25-.09-.34-.05-.05-.14-.14-.3-.14v-.23h2.36v.23c-.14.05-.23.09-.3.14-.05.05-.09.18-.09.34v5.73c0,.18.05.25.09.34.05.05.14.14.3.14v.23h-2.36v-.23c.18-.05.25-.09.3-.14.05-.09.09-.18.09-.34v-2.41h-3.67v2.41Z"/>
  <path class="st0" d="M34.02,20.83l5.13-8.9.25-.39h11.16l.23.39,5.15,8.81.23.39-.23.39-2.54,4.47h-1.83l2.77-4.86-4.7-7.98h-9.32l-4.67,8.07,2.79,4.77h-1.88l-2.54-4.38-.25-.39.25-.39Z"/>
  <path class="st0" d="M3.46,20.83l5.18-8.9.21-.39h11.18l.21.39,5.18,8.81.21.39-.21.39-2.54,4.47h-1.83l2.75-4.86-4.67-7.98h-9.32l-4.7,8.07,2.79,4.77h-1.88l-2.54-4.38-.25-.39.25-.39Z"/>
  <path class="st0" d="M18.74,11.74l5.18-8.9.21-.39h11.16l.23.39,5.15,8.81.23.41-.23.39-2.52,4.43h-1.86l2.77-4.82-4.7-8.03h-9.32l-4.67,8.12,2.79,4.73h-1.88l-2.54-4.34-.25-.39.25-.41Z"/>
  <path class="st0" d="M18.74,12.5l5.18,8.9.21.44h11.16l.23-.44,5.15-8.76.23-.46-.23-.39-2.52-4.43h-1.86l2.77,4.82-4.7,8.03h-9.32l-4.67-8.1,2.79-4.75h-1.88l-2.54,4.34-.25.41.25.39Z"/>
  <path class="st1" d="M51.95,43.02v-3.05h.66v3.05c0,1.24.53,1.63,1.19,1.63s1.24-.39,1.24-1.63v-3.05h.64v3.05c0,1.65-.8,2.22-1.86,2.22s-1.88-.57-1.88-2.22Z"/>
  <path class="st1" d="M56.99,41.32h.53l.05.44h.02c.34-.3.78-.53,1.21-.53.99,0,1.51.78,1.51,1.95,0,1.31-.78,2.06-1.65,2.06-.34,0-.71-.16-1.05-.44l.02.67v1.31h-.64v-5.46ZM59.67,43.18c0-.85-.3-1.42-1.01-1.42-.32,0-.64.18-1.03.53v2.02c.34.3.69.39.94.39.62,0,1.1-.57,1.1-1.51Z"/>
  <path class="st1" d="M60.93,44.71l.32-.44c.34.28.66.46,1.12.46.5,0,.76-.28.76-.6,0-.39-.46-.57-.87-.73-.53-.21-1.15-.46-1.15-1.1s.48-1.08,1.33-1.08c.48,0,.89.21,1.19.44l-.32.41c-.27-.21-.53-.34-.87-.34-.48,0-.71.25-.71.55,0,.37.41.5.85.67.55.21,1.17.44,1.17,1.17,0,.62-.5,1.15-1.4,1.15-.53-.02-1.05-.25-1.42-.55Z"/>
  <path class="st1" d="M64.67,39.53h.64v3.81h.02l1.63-2.02h.71l-1.28,1.54,1.44,2.29h-.71l-1.12-1.83-.71.83v1.01h-.64v-5.62h.02Z"/>
  <path class="st1" d="M68.45,40.1c0-.25.21-.41.46-.41s.46.16.46.41-.21.41-.46.41c-.27,0-.46-.16-.46-.41ZM68.56,41.32h.64v3.83h-.64v-3.83Z"/>
  <path class="st1" d="M70.49,44.37v-4.84h.64v4.91c0,.21.09.28.18.28.05,0,.07,0,.14-.02l.09.5c-.09.02-.21.07-.37.07-.48-.02-.69-.32-.69-.89Z"/>
  <path class="st1" d="M72.5,44.37v-4.84h.64v4.91c0,.21.09.28.18.28.05,0,.07,0,.14-.02l.09.5c-.09.02-.21.07-.37.07-.48-.02-.69-.32-.69-.89Z"/>
  <path class="st1" d="M74.4,40.1c0-.25.21-.41.46-.41s.46.16.46.41-.21.41-.46.41c-.27,0-.46-.16-.46-.41ZM74.52,41.32h.64v3.83h-.64v-3.83Z"/>
  <path class="st1" d="M76.44,41.32h.53l.05.55h.02c.37-.37.76-.64,1.28-.64.8,0,1.17.53,1.17,1.49v2.43h-.64v-2.34c0-.71-.21-1.01-.73-1.01-.39,0-.66.21-1.05.6v2.78h-.64v-3.85h.02Z"/>
  <path class="st1" d="M80.47,45.88c0-.32.21-.64.57-.87v-.02c-.21-.11-.34-.32-.34-.62,0-.32.23-.57.41-.71v-.05c-.25-.21-.5-.57-.5-1.03,0-.85.66-1.38,1.44-1.38.21,0,.41.05.55.09h1.33v.5h-.78c.18.18.32.46.32.78,0,.83-.62,1.33-1.4,1.33-.18,0-.39-.05-.57-.14-.14.11-.25.25-.25.46,0,.25.16.41.66.41h.76c.89,0,1.33.28,1.33.92,0,.71-.76,1.33-1.95,1.33-.94.02-1.58-.34-1.58-1.01ZM83.36,45.68c0-.34-.27-.48-.78-.48h-.66c-.14,0-.32-.02-.5-.05-.27.18-.39.41-.39.64,0,.41.41.67,1.1.67.76,0,1.24-.37,1.24-.78ZM82.86,42.58c0-.55-.37-.89-.82-.89s-.82.34-.82.89.37.92.82.92.82-.34.82-.92Z"/>
  <path class="st1" d="M86.36,39.97h1.53c1.05,0,1.79.37,1.79,1.26,0,.5-.27.96-.76,1.12v.02c.62.11,1.05.53,1.05,1.24,0,1.01-.8,1.51-1.95,1.51h-1.67v-5.16ZM87.78,42.17c.87,0,1.24-.32,1.24-.85,0-.6-.41-.83-1.21-.83h-.8v1.67h.78ZM87.92,44.62c.89,0,1.4-.32,1.4-1.01,0-.64-.5-.94-1.4-.94h-.89v1.95h.89Z"/>
  <path class="st1" d="M90.94,39.53h.64v1.54l-.02.78c.37-.34.76-.64,1.26-.64.8,0,1.17.53,1.17,1.49v2.43h-.64v-2.34c0-.71-.21-1.01-.73-1.01-.39,0-.66.21-1.05.6v2.78h-.62v-5.62Z"/>
  <path class="st1" d="M95,44.16c0-.83.71-1.26,2.36-1.42,0-.5-.16-.96-.8-.96-.44,0-.85.21-1.15.41l-.25-.44c.34-.23.89-.5,1.51-.5.94,0,1.33.62,1.33,1.58v2.36h-.53l-.05-.46h-.02c-.37.3-.8.55-1.26.55-.66-.05-1.15-.44-1.15-1.12ZM97.33,44.21v-1.06c-1.28.16-1.72.46-1.72.96,0,.44.3.62.66.62.39-.02.69-.21,1.05-.53Z"/>
  <path class="st1" d="M99.19,41.32h.53l.05.69h.02c.27-.48.66-.8,1.1-.8.16,0,.3.02.41.07l-.11.57c-.14-.05-.23-.07-.37-.07-.32,0-.71.23-.96.87v2.45h-.66v-3.78Z"/>
  <path class="st1" d="M101.69,44.16c0-.83.71-1.26,2.36-1.42,0-.5-.16-.96-.8-.96-.44,0-.85.21-1.15.41l-.25-.44c.34-.23.89-.5,1.51-.5.94,0,1.33.62,1.33,1.58v2.36h-.53l-.05-.46h-.02c-.37.3-.8.55-1.26.55-.66-.05-1.15-.44-1.15-1.12ZM104.05,44.21v-1.06c-1.28.16-1.72.46-1.72.96,0,.44.3.62.66.62.37-.02.69-.21,1.05-.53Z"/>
  <path class="st1" d="M106.02,43.96v-2.11h-.57v-.48l.6-.05.07-1.08h.55v1.08h1.03v.53h-1.03v2.13c0,.46.16.73.6.73.14,0,.32-.05.44-.09l.11.48c-.21.07-.48.14-.71.14-.8,0-1.08-.5-1.08-1.28Z"/>
  <path class="st2" d="M109.77,27.19c2.03,0,3.67-1.65,3.67-3.68s-1.64-3.68-3.67-3.68-3.67,1.65-3.67,3.68,1.64,3.68,3.67,3.68Z"/>
  <path class="st1" d="M108.14,25.54v-3.88h1.64c.41,0,.71.04.9.11.19.07.34.19.45.37.11.18.17.38.17.61,0,.29-.09.53-.26.72-.17.19-.42.31-.76.36.17.1.31.21.42.33.11.12.26.33.44.63l.47.76h-.93l-.56-.84c-.2-.3-.34-.49-.41-.57-.07-.08-.15-.13-.23-.16-.08-.03-.21-.04-.39-.04h-.16v1.62h-.78ZM108.92,23.3h.58c.37,0,.61-.02.7-.05.09-.03.17-.09.22-.16.05-.08.08-.17.08-.29,0-.13-.04-.24-.11-.31-.07-.08-.17-.13-.29-.15-.06,0-.25-.01-.57-.01h-.61v.98Z"/>
</svg>